<svg width="24" height="28" viewBox="0 0 24 28" fill="none" xmlns="http://www.w3.org/2000/svg">
<path d="M23.1137 4.30516C22.9447 4.13716 22.7457 4.05266 22.5157 4.05266C22.4012 4.05266 22.1597 4.14666 21.7927 4.33216C21.4252 4.51816 21.0352 4.72516 20.6247 4.95616C20.2132 5.18566 19.7262 5.39366 19.1642 5.57966C18.6027 5.76516 18.0827 5.85916 17.6042 5.85916C17.1622 5.85916 16.7722 5.77516 16.4362 5.60666C15.3217 5.08466 14.3522 4.69516 13.5292 4.43816C12.7062 4.18166 11.8212 4.05266 10.8737 4.05266C9.23774 4.05266 7.37424 4.58466 5.28524 5.64666C4.85424 5.86166 4.54524 6.02816 4.34524 6.15016L4.14674 4.69466C4.59524 4.30516 4.88474 3.73766 4.88474 3.09716C4.88474 1.92366 3.93374 0.972656 2.76024 0.972656C1.58674 0.972656 0.635742 1.92366 0.635742 3.09716C0.635742 3.86266 1.04474 4.52816 1.65174 4.90216L4.52174 25.9472C4.60724 26.5737 5.14324 27.0282 5.75874 27.0282C5.81474 27.0282 5.87174 27.0247 5.92924 27.0172C6.61324 26.9232 7.09224 26.2937 6.99874 25.6097L5.84524 17.1512C7.93824 16.1127 9.74874 15.5892 11.2717 15.5892C11.9182 15.5892 12.5487 15.6857 13.1632 15.8807C13.7782 16.0762 14.2897 16.2882 14.6967 16.5177C15.1037 16.7477 15.5842 16.9607 16.1367 17.1547C16.6902 17.3497 17.2367 17.4472 17.7762 17.4472C19.1392 17.4472 20.7717 16.9337 22.6742 15.9072C22.9132 15.7832 23.0882 15.6612 23.1987 15.5417C23.3092 15.4222 23.3647 15.2522 23.3647 15.0312V4.90266C23.3647 4.67316 23.2812 4.47366 23.1137 4.30516Z" fill="#F0145A"/>
</svg>
