<svg width="26" height="26" viewBox="0 0 26 26" fill="none" xmlns="http://www.w3.org/2000/svg">
<path d="M13.0971 0.552734C6.25258 0.552734 0.684082 6.12123 0.684082 12.9657C0.684082 19.8107 6.25258 25.3797 13.0971 25.3797C19.9416 25.3797 25.5101 19.8107 25.5101 12.9657C25.5106 6.12123 19.9421 0.552734 13.0971 0.552734ZM19.9556 12.0582V12.0587L16.3621 14.6587L17.7461 18.8887C17.7681 18.9547 17.7796 19.0252 17.7796 19.0972C17.7796 19.4667 17.4806 19.7667 17.1111 19.7667C16.9641 19.7667 16.8291 19.7197 16.7191 19.6402L13.0976 17.0207L9.47608 19.6402C9.36608 19.7197 9.23108 19.7667 9.08458 19.7667C8.71458 19.7667 8.41508 19.4672 8.41508 19.0972C8.41508 19.0247 8.42708 18.9547 8.44908 18.8887L9.83358 14.6587L6.24008 12.0587V12.0582C6.07208 11.9372 5.96308 11.7397 5.96308 11.5167C5.96308 11.1472 6.26208 10.8482 6.63208 10.8482H11.0806L12.4581 6.63773C12.5421 6.36423 12.7966 6.16523 13.0981 6.16523C13.3991 6.16523 13.6541 6.36423 13.7376 6.63773L15.1151 10.8482H19.5636C19.9331 10.8482 20.2326 11.1472 20.2326 11.5167C20.2321 11.7397 20.1231 11.9372 19.9556 12.0582Z" fill="#F0145A"/>
</svg>
