<svg width="26" height="22" viewBox="0 0 26 22" fill="none" xmlns="http://www.w3.org/2000/svg">
<path d="M14.2321 13.331V12.773C14.2321 12.0925 13.6806 11.541 13.0006 11.541C12.3201 11.541 11.7686 12.0925 11.7686 12.773V13.331C11.7686 14.0115 12.3201 14.563 13.0006 14.563C13.6801 14.563 14.2321 14.0115 14.2321 13.331Z" fill="#F0145A"/>
<path d="M15.0769 14.0143C14.8039 14.9078 13.9814 15.5638 13.0004 15.5638C12.0189 15.5638 11.1964 14.9078 10.9234 14.0143H2.43886C1.90336 14.0143 1.39736 13.8898 0.943359 13.6738V19.3073C0.943359 20.4073 1.84336 21.3073 2.94336 21.3073H23.0564C24.1564 21.3073 25.0564 20.4073 25.0564 19.3073V13.6743C24.6019 13.8903 24.0964 14.0148 23.5609 14.0148H15.0769V14.0143Z" fill="#F0145A"/>
<path d="M23.4775 3.89736H18.677C18.387 2.08436 16.8165 0.693359 14.923 0.693359H11.0765C9.18297 0.693359 7.61297 2.08436 7.32247 3.89736H2.52247C1.37647 3.89736 0.438965 4.79736 0.438965 5.89736V10.5139C0.438965 11.6184 1.33447 12.5139 2.43897 12.5139H10.829C10.8575 11.9384 11.1045 11.4214 11.495 11.0474C11.507 11.0359 11.521 11.0269 11.5335 11.0159C11.62 10.9364 11.71 10.8614 11.8085 10.7964C11.8435 10.7729 11.8835 10.7569 11.92 10.7359C12.001 10.6894 12.081 10.6409 12.1685 10.6049C12.237 10.5764 12.311 10.5599 12.383 10.5384C12.445 10.5199 12.504 10.4954 12.5685 10.4824C12.708 10.4539 12.8525 10.4389 13 10.4389C13.148 10.4389 13.292 10.4544 13.4315 10.4824C13.4955 10.4954 13.5545 10.5199 13.6165 10.5384C13.6885 10.5599 13.7625 10.5764 13.831 10.6054C13.918 10.6414 13.9975 10.6894 14.0785 10.7359C14.1155 10.7574 14.1555 10.7734 14.191 10.7969C14.2895 10.8614 14.379 10.9364 14.4655 11.0159C14.478 11.0274 14.4925 11.0364 14.5045 11.0484C14.8955 11.4224 15.142 11.9394 15.1705 12.5149H23.5605C24.665 12.5149 25.5605 11.6194 25.5605 10.5149V5.89836C25.561 4.79736 24.6235 3.89736 23.4775 3.89736ZM9.24797 3.89736C9.50297 3.12686 10.2215 2.56536 11.0765 2.56536H14.923C15.778 2.56536 16.4965 3.12686 16.7515 3.89736H9.24797Z" fill="#F0145A"/>
</svg>
